<!DOCTYPE svg PUBLIC "-//W3C//DTD SVG 1.1//EN" "http://www.w3.org/Graphics/SVG/1.1/DTD/svg11.dtd">
<!-- Uploaded to: SVG Repo, www.svgrepo.com, Transformed by: SVG Repo Mixer Tools -->
<svg fill="#ffffff" height="64px" width="64px" version="1.1" id="Layer_1" xmlns="http://www.w3.org/2000/svg" xmlns:xlink="http://www.w3.org/1999/xlink" viewBox="0 0 512.012 512.012" xml:space="preserve" stroke="#ffffff">
<g id="SVGRepo_bgCarrier" stroke-width="0"/>
<g id="SVGRepo_tracerCarrier" stroke-linecap="round" stroke-linejoin="round"/>
<g id="SVGRepo_iconCarrier"> <g> <g> <path d="M469.169,31.718c-42.317-42.289-110.876-42.289-153.182-0.01c-22.411,22.411-32.949,52.186-31.621,81.525 c-2.152,1.202-4.151,2.766-5.877,4.73l-176.44,200.771c-10.17,10.124-13.164,25.523-8.661,39.132 c-28.036,13.63-44.427,37.374-37.195,69.926c2.593,11.664-2.3,21.476-13.91,30.864c-6.56,5.304-13.275,8.888-17.08,10.395 c-11.43,4.528-17.025,17.465-12.497,28.895c4.528,11.43,17.465,17.025,28.895,12.497c7.634-3.024,18.077-8.597,28.675-17.167 c23.495-18.998,36.196-44.469,29.378-75.142c-2.048-9.217,1.884-14.836,13.57-20.415c3.399-1.622,6.879-2.913,10.101-3.9 l4.035,4.035c15.416,15.416,40.397,15.416,55.813,0l199.747-175.481c1.959-1.722,3.521-3.715,4.721-5.861 c29.338,1.329,59.113-9.208,81.521-31.616C511.447,142.583,511.447,74.024,469.169,31.718z M155.465,362.994l-17.619-17.619 l158.412-180.194l39.436,39.424L155.465,362.994z M437.677,153.418c-24.915,24.915-65.293,24.915-90.213-0.005 c-24.921-24.921-24.921-65.298,0-90.219c24.916-24.9,65.302-24.9,90.224,0.005C462.582,88.111,462.582,128.496,437.677,153.418z"/> </g> </g> </g>
</svg>