<!DOCTYPE svg PUBLIC "-//W3C//DTD SVG 1.1//EN" "http://www.w3.org/Graphics/SVG/1.1/DTD/svg11.dtd">
<!-- Uploaded to: SVG Repo, www.svgrepo.com, Transformed by: SVG Repo Mixer Tools -->
<svg fill="#ffffff" width="64px" height="64px" viewBox="0 0 24 24" xmlns="http://www.w3.org/2000/svg" stroke="#ffffff" stroke-width="0.00024000000000000003">
<g id="SVGRepo_bgCarrier" stroke-width="0"/>
<g id="SVGRepo_tracerCarrier" stroke-linecap="round" stroke-linejoin="round"/>
<g id="SVGRepo_iconCarrier">
<path d="M22,4H2A1,1,0,0,0,1,5v6a1,1,0,0,0,1,1H22a1,1,0,0,0,1-1V5A1,1,0,0,0,22,4Zm-1,6H3V6H21Zm2,5a1,1,0,0,1-1,1H2a1,1,0,0,1,0-2H22A1,1,0,0,1,23,15Zm0,4a1,1,0,0,1-1,1H2a1,1,0,0,1,0-2H22A1,1,0,0,1,23,19Z"/>
</g>
</svg>